<?xml version="1.0" standalone="no"?><!DOCTYPE svg PUBLIC "-//W3C//DTD SVG 1.1//EN" "http://www.w3.org/Graphics/SVG/1.1/DTD/svg11.dtd"><svg t="1757514209460" class="icon" viewBox="0 0 1024 1024" version="1.1" xmlns="http://www.w3.org/2000/svg" p-id="1270" xmlns:xlink="http://www.w3.org/1999/xlink" width="200" height="200"><path d="M985.33390336 548.30491648L38.66609664 548.30491648c-20.1585243 0-36.40277333-16.24424789-36.40277333-36.40277333S18.5075712 475.49936981 38.66609664 475.49936981l946.66780786 0c20.1585243 0 36.40277333 16.24424789 36.40277333 36.40277334S1005.4924288 548.30491648 985.33390336 548.30491648z" fill="#ffffff" p-id="1271"></path><path d="M876.12558563 985.33390336L657.51323421 985.33390336c-20.1585243 0-36.40277333-16.24424789-36.40277334-36.40277333s16.24424789-36.40277333 36.40277334-36.40277334l218.41663658 0c20.1585243 0 36.40277333-16.24424789 36.40277334-36.40277333l0-182.01386439c0-20.1585243 16.24424789-36.40277333 36.40277333-36.40277334s36.40277333 16.24424789 36.40277333 36.40277334l0 182.01386439C985.33390336 936.20973227 936.20973227 985.33390336 876.12558563 985.33390336z" fill="#ffffff" p-id="1272"></path><path d="M329.88827875 985.33390336l-182.01386438 0c-60.27986034 0-109.20831886-48.92845853-109.20831887-109.20831886l0-182.01386439c0-20.1585243 16.24424789-36.40277333 36.40277333-36.40277334S111.47164217 673.95319581 111.47164217 694.11172125l0 182.01386438c0 20.1585243 16.4399616 36.40277333 36.40277333 36.40277334l182.01386439 0c20.1585243 0 36.40277333 16.24424789 36.40277334 36.40277333C366.29105209 969.08965547 350.04680419 985.33390336 329.88827875 985.33390336z" fill="#ffffff" p-id="1273"></path><path d="M75.06886883 366.29105209c-20.1585243 0-36.40277333-16.24424789-36.40277333-36.40277334l0-182.01386438c0-60.27986034 48.92845853-109.20831886 109.20831887-109.20831887l182.01386438 0c20.1585243 0 36.40277333 16.24424789 36.40277334 36.40277333S350.04680419 111.47164217 329.88827875 111.47164217l-182.01386438 0c-19.96281059 0-36.40277333 16.4399616-36.40277334 36.40277333l0 182.01386439C111.47164217 350.04680419 95.22739427 366.29105209 75.06886883 366.29105209z" fill="#ffffff" p-id="1274"></path><path d="M948.93113117 366.29105209c-20.1585243 0-36.40277333-16.24424789-36.40277334-36.40277334l0-182.01386438c0-19.96281059-16.24424789-36.40277333-36.40277333-36.40277334L657.51323421 111.47164217c-20.1585243 0-36.40277333-16.24424789-36.40277334-36.40277334s16.24424789-36.40277333 36.40277334-36.40277333l218.41663658 0c60.27986034 0 109.20831886 48.92845853 109.20831886 109.20831887l0 182.01386438C985.33390336 350.04680419 969.08965547 366.29105209 948.93113117 366.29105209z" fill="#ffffff" p-id="1275"></path></svg>