<?xml version="1.0" standalone="no"?><!DOCTYPE svg PUBLIC "-//W3C//DTD SVG 1.1//EN" "http://www.w3.org/Graphics/SVG/1.1/DTD/svg11.dtd"><svg t="1757651532000" class="icon" viewBox="0 0 1024 1024" version="1.1" xmlns="http://www.w3.org/2000/svg" p-id="1579" xmlns:xlink="http://www.w3.org/1999/xlink" width="200" height="200"><path d="M463.45481443 897.35168A388.55566222 388.55566222 0 0 1 126.64832 560.54518557H26.54814777v-97.09037114h100.10017223A388.55566222 388.55566222 0 0 1 463.45481443 126.64832V26.54814777h97.09037114v100.10017223A388.55566222 388.55566222 0 0 1 897.35168 463.45481443H997.45185223v97.09037114h-100.10017223A388.55566222 388.55566222 0 0 1 560.54518557 897.35168V997.45185223h-97.09037114v-100.10017223zM512 803.27111111a291.27111111 291.27111111 0 1 0 0-582.54222222 291.27111111 291.27111111 0 0 0 0 582.54222222z" fill="#f6716f" p-id="1580"></path><path d="M512 512m-145.63555555 0a145.63555555 145.63555555 0 1 0 291.2711111 0 145.63555555 145.63555555 0 1 0-291.2711111 0Z" fill="#f6716f" p-id="1581"></path></svg>