<?xml version="1.0" standalone="no"?><!DOCTYPE svg PUBLIC "-//W3C//DTD SVG 1.1//EN" "http://www.w3.org/Graphics/SVG/1.1/DTD/svg11.dtd"><svg t="1757513308847" class="icon" viewBox="0 0 1024 1024" version="1.1" xmlns="http://www.w3.org/2000/svg" p-id="1236" xmlns:xlink="http://www.w3.org/1999/xlink" width="200" height="200"><path d="M252.7 359c23.7-41.8 58-76.9 99.3-101.5 42.5-25.3 91.2-38.7 141-38.7 17.8 0 32.3-14.5 32.3-32.3s-14.5-32.3-32.3-32.3c-61.4 0-121.6 16.5-174 47.8-50.9 30.3-93.3 73.6-122.5 125.2-8.8 15.5-3.3 35.2 12.2 44 5 2.8 10.5 4.2 15.9 4.2 11.2 0 22.2-5.9 28.1-16.4z" fill="#ffffff" p-id="1237"></path><path d="M982 937L822.5 777.5c31.3-35.6 56.7-75.7 75.5-119.4 24.3-56.4 36.6-116.3 36.6-178.2 0-60.9-11.9-120-35.5-175.7-22.7-53.7-55.3-102-96.7-143.4s-89.7-74-143.4-96.7c-55.7-23.5-114.8-35.5-175.7-35.5-60.9 0-120 11.9-175.7 35.5-53.7 22.7-102 55.3-143.4 96.7-41.4 41.4-74 89.7-96.7 143.4C44 359.9 32 419 32 479.9s11.9 120 35.5 175.7c22.7 53.7 55.3 102 96.7 143.4s89.7 74 143.4 96.7c55.7 23.5 114.8 35.5 175.7 35.5 27.2 0 54.5-2.4 81.1-7.3 31.5-5.7 62.5-14.8 92-27.1 16.5-6.8 24.3-25.7 17.4-42.2-6.8-16.5-25.7-24.3-42.2-17.4a385.44 385.44 0 0 1-78.8 23.2c-22.8 4.1-46.2 6.2-69.5 6.2-103.3 0-200.4-40.2-273.4-113.2S96.7 583.3 96.7 480s40.2-200.4 113.2-273.4S380 93.4 483.3 93.4s200.4 40.2 273.4 113.2S869.9 376.7 869.9 480c0 53-10.5 104.4-31.3 152.7-20.1 46.6-48.8 88.4-85.3 124-6.6 6.4-9.8 15-9.7 23.5-0.3 9.1 3 18.4 10 25.4l180 180c13.4 13.4 35 13.4 48.4 0 13.3-13.6 13.3-35.2 0-48.6z" fill="#ffffff" p-id="1238"></path><path d="M188.8 452.5m-32.3 0a32.3 32.3 0 1 0 64.6 0 32.3 32.3 0 1 0-64.6 0Z" fill="#ffffff" p-id="1239"></path></svg>