<?xml version="1.0" standalone="no"?><!DOCTYPE svg PUBLIC "-//W3C//DTD SVG 1.1//EN" "http://www.w3.org/Graphics/SVG/1.1/DTD/svg11.dtd"><svg t="1757510703411" class="icon" viewBox="0 0 1068 1024" version="1.1" xmlns="http://www.w3.org/2000/svg" p-id="1521" xmlns:xlink="http://www.w3.org/1999/xlink" width="208.59375" height="200"><path d="M49.816216 202.032432l-26.291892 24.908109 26.291892 26.291891 24.908108-26.291891-24.908108-24.908109z m0 76.108109c-27.675676 0-49.816216-22.140541-49.816216-49.816217 0-27.675676 22.140541-49.816216 49.816216-49.816216 27.675676 0 49.816216 22.140541 49.816216 49.816216 0 27.675676-22.140541 49.816216-49.816216 49.816217zM150.832432 961.72973z m5.535136 4.151351l51.2 31.827027 2.767567-59.502703-52.583784 27.675676z m53.967567 56.735135l-9.686486-2.767567-63.654054-38.745946-8.302703-15.221622 9.686486-15.221622 65.037838-34.594594h17.989189l8.302703 15.221621-2.767567 74.724325-9.686487 15.221621-8.302703 2.767568zM1054.443243 478.789189h-65.037838l-12.454054-12.454054 12.454054-12.454054h65.037838l12.454054 12.454054z" fill="#ffffff" p-id="1522"></path><path d="M1022.616216 510.616216L1010.162162 498.162162v-65.037838l12.454054-12.454054 12.454054 12.454054v65.037838zM441.427027 664.216216l-11.07027-11.07027V440.043243l6.918919-11.07027 185.427027-65.037838 9.686486 1.383784 5.535135 8.302703v207.567567l-11.07027 11.07027-11.07027-11.07027V388.843243l-163.286487 58.118919v206.183784z" fill="#ffffff" p-id="1523"></path><path d="M410.983784 644.843243l-22.140541 22.140541 22.140541 22.14054 22.14054-22.14054-22.14054-22.140541z m0 66.421622c-23.524324 0-44.281081-19.372973-44.281081-44.281081s19.372973-44.281081 44.281081-44.281081 44.281081 19.372973 44.281081 44.281081-19.372973 44.281081-44.281081 44.281081zM593.643243 564.583784l-22.14054 22.14054 22.14054 22.140541 22.140541-22.140541-22.140541-22.14054z m0 66.421621c-24.908108 0-44.281081-19.372973-44.281081-44.281081s19.372973-44.281081 44.281081-44.281081 44.281081 19.372973 44.281081 44.281081-19.372973 44.281081-44.281081 44.281081zM476.021622 477.405405l-9.686487-8.302702 6.918919-13.837838 185.427027-62.27027 13.837838 6.918919-6.918919 13.837837-185.427027 62.270271zM517.535135 22.140541c-55.351351 0-99.632432 44.281081-99.632432 99.632432 0 55.351351 44.281081 99.632432 99.632432 99.632432 55.351351 0 99.632432-44.281081 99.632433-99.632432 0-55.351351-44.281081-99.632432-99.632433-99.632432z m0 221.405405c-66.421622 0-121.772973-53.967568-121.772973-121.772973 0-66.421622 53.967568-121.772973 121.772973-121.772973 66.421622 0 121.772973 53.967568 121.772973 121.772973 0 66.421622-53.967568 121.772973-121.772973 121.772973zM105.167568 588.108108l-11.070271-9.686486-2.767567-51.2c0-81.643243 23.524324-161.902703 67.805405-231.091892 42.897297-66.421622 103.783784-120.389189 175.740541-153.6l13.837838 5.535135-5.535136 13.837838A405.033514 405.033514 0 0 0 112.086486 527.221622l2.767568 48.432432-9.686486 12.454054H103.783784zM517.535135 952.043243c-80.259459 0-159.135135-22.140541-226.94054-65.037838l-2.767568-15.221621 15.221622-2.767568c63.654054 40.12973 138.378378 62.27027 214.486486 62.27027 78.875676 0 154.983784-23.524324 220.021622-65.037837l15.221621 2.767567-2.767567 15.221622c-69.189189 45.664865-149.448649 69.189189-232.475676 69.189189zM928.518919 588.108108H927.135135l-9.686486-12.454054 2.767567-48.432432c0-154.983784-91.32973-298.897297-231.091892-365.318919l-5.535135-13.837838 13.837838-5.535135c71.956757 34.594595 132.843243 87.178378 175.740541 153.6 44.281081 69.189189 67.805405 148.064865 67.805405 231.091892l-2.767568 51.2-11.07027 9.686486zM859.32973 644.843243c-55.351351 0-99.632432 44.281081-99.632433 99.632433 0 55.351351 44.281081 99.632432 99.632433 99.632432 55.351351 0 99.632432-44.281081 99.632432-99.632432 0-55.351351-44.281081-99.632432-99.632432-99.632433z m0 221.405406c-66.421622 0-121.772973-53.967568-121.772973-121.772973 0-66.421622 53.967568-121.772973 121.772973-121.772973 66.421622 0 121.772973 53.967568 121.772973 121.772973 0 66.421622-53.967568 121.772973-121.772973 121.772973zM168.821622 644.843243c-55.351351 0-99.632432 44.281081-99.632433 99.632433 0 55.351351 44.281081 99.632432 99.632433 99.632432 55.351351 0 99.632432-44.281081 99.632432-99.632432 0-55.351351-44.281081-99.632432-99.632432-99.632433z m0 221.405406c-66.421622 0-121.772973-53.967568-121.772973-121.772973 0-66.421622 53.967568-121.772973 121.772973-121.772973 66.421622 0 121.772973 53.967568 121.772973 121.772973 0 66.421622-53.967568 121.772973-121.772973 121.772973z" fill="#ffffff" p-id="1524"></path></svg>