<?xml version="1.0" standalone="no"?><!DOCTYPE svg PUBLIC "-//W3C//DTD SVG 1.1//EN" "http://www.w3.org/Graphics/SVG/1.1/DTD/svg11.dtd"><svg t="1757510717180" class="icon" viewBox="0 0 1024 1024" version="1.1" xmlns="http://www.w3.org/2000/svg" p-id="1999" xmlns:xlink="http://www.w3.org/1999/xlink" width="200" height="200"><path d="M527.14609778 395.49155555c-88.77943467-15.61213155-171.50043022 33.32141511-185.01540978 109.2849209s46.60337778 150.29589333 136.31488 165.90802488 171.50043022-33.32141511 185.01540978-109.28492088-47.53544533-150.994944-136.31488-165.9080249z m90.41055289 157.98545067c-8.85464178 50.79768178-67.57489778 82.72099555-130.95549156 71.53618489S379.18037333 563.03069867 388.268032 512s67.57489778-82.72099555 130.95549155-71.53618489 107.42078578 61.51645867 98.33312712 112.31414044z" fill="#ffffff" p-id="2000"></path><path d="M954.73208889 364.03427555a470.92713245 470.92713245 0 1 1-372.82702222-312.2426311 302.92195555 302.92195555 0 0 1 6.05843911-46.60337778A512.63715555 512.63715555 0 1 0 998.30624711 348.88817778a300.59178667 300.59178667 0 0 1-43.57415822 15.14609777z" fill="#ffffff" p-id="2001"></path><path d="M729.63777422 51.79164445a23.30168889 23.30168889 0 0 1 18.874368 27.0299591l-80.85686044 459.04327112a23.30168889 23.30168889 0 1 1-46.60337778-8.15559112l80.85686045-459.0432711a23.30168889 23.30168889 0 0 1 27.72900977-18.874368zM267.79830045 647.38281245A186.41351111 186.41351111 0 0 1 255.68142222 581.90506667c0-7.68955733-46.60337778-5.82542222-46.60337777 0a233.01688889 233.01688889 0 0 0 17.70928355 89.01245155zM442.09493333 768.31857778a186.41351111 186.41351111 0 0 1-152.62606222-79.691776l-40.54493866 23.30168889A233.01688889 233.01688889 0 0 0 442.09493333 814.92195555c7.45654045 0 4.42732089-46.60337778 0-46.60337777z" fill="#ffffff" p-id="2002"></path><path d="M976.40265955 287.37171911a327.62174578 327.62174578 0 0 0-48.0014791-4.42732089 279.62026667 279.62026667 0 0 0-215.07458845-182.91825777 326.22364445 326.22364445 0 0 0 4.42732089-46.60337778h3.72827022a326.22364445 326.22364445 0 0 1 256.31857778 233.01688888z" fill="#ffffff" p-id="2003"></path></svg>